<svg version="1.1" id="Layer_1" xmlns="http://www.w3.org/2000/svg" xmlns:xlink="http://www.w3.org/1999/xlink" x="0px" y="0px"
	 width="100%" viewBox="0 0 512 512" enable-background="new 0 0 512 512" xml:space="preserve">
<path fill="#000000" opacity="1.000000" stroke="none" 
	d="
M342.000000,513.000000 
	C228.027695,513.000000 114.555382,513.000000 1.041535,513.000000 
	C1.041535,342.402679 1.041535,171.805328 1.041535,1.103989 
	C171.555649,1.103989 342.111389,1.103989 512.833557,1.103989 
	C512.833557,171.666534 512.833557,342.333252 512.833557,513.000000 
	C456.138641,513.000000 399.319305,513.000000 342.000000,513.000000 
M120.056374,327.920258 
	C121.713387,331.126892 123.202896,334.433960 125.055840,337.523071 
	C134.039581,352.500305 145.000961,365.768524 158.445587,377.049438 
	C171.422729,387.938049 185.673599,396.667999 201.338943,402.882812 
	C215.100494,408.342377 229.309982,412.671814 244.295471,412.971252 
	C257.504883,413.235229 270.870667,414.170227 283.906921,412.619293 
	C303.702942,410.264191 322.920441,404.745850 339.978119,393.880005 
	C348.375641,388.530701 356.061707,382.064545 364.679749,375.821411 
	C379.292511,362.281036 390.349457,346.313049 398.063416,327.915161 
	C406.376801,308.087585 410.621948,287.418488 410.864685,266.028107 
	C410.982086,255.680908 409.224457,245.319061 409.188293,234.960815 
	C409.168915,229.395859 406.918365,228.904404 402.357788,228.917953 
	C356.872803,229.053070 311.387268,228.999924 265.901886,228.999924 
	C263.987946,228.999924 262.074005,228.999924 260.250977,228.999924 
	C260.250977,249.699921 260.250977,269.633972 260.250977,289.992065 
	C288.252167,289.992065 316.006805,289.992065 344.662231,289.992065 
	C342.461761,296.089233 340.789856,301.657074 338.476501,306.944305 
	C333.019440,319.416779 323.724884,328.736023 312.315735,336.984039 
	C312.001862,337.079224 311.647034,337.109741 311.379913,337.278809 
	C291.071167,350.135132 268.843506,353.350708 245.477005,349.950287 
	C227.048279,347.268402 211.353195,338.642853 197.754074,326.188965 
	C185.900116,315.333313 177.978882,301.794556 172.015411,286.147034 
	C171.124634,282.368408 169.642944,278.618500 169.457367,274.805573 
	C168.963623,264.661011 168.638458,254.474533 169.022308,244.334091 
	C169.240677,238.565445 170.981155,232.854385 172.669907,226.749252 
	C177.448837,213.344879 184.581116,201.222916 194.529739,191.161026 
	C208.012558,177.524734 224.097244,168.519806 243.301743,164.758972 
	C262.428467,161.013351 280.538605,163.111374 297.816833,171.559647 
	C304.769409,174.959122 311.150726,179.658661 317.412628,184.280533 
	C320.315277,186.422958 321.808624,185.968704 323.998810,183.656906 
	C333.360657,173.775314 342.813812,163.979309 352.306732,154.223221 
	C356.570129,149.841614 361.005188,145.627045 365.485382,141.215546 
	C364.386353,140.013397 363.781036,139.236710 363.063446,138.583298 
	C349.478394,126.213516 334.020203,116.818024 316.974945,110.092812 
	C302.452271,104.362885 287.273010,101.008133 271.733612,100.127037 
	C257.225098,99.304398 242.701248,99.940422 228.364288,102.971336 
	C212.786224,106.264626 198.013565,111.571671 184.087173,119.345871 
	C166.838943,128.974426 151.625488,141.029434 139.151855,156.390564 
	C131.546906,165.755951 124.303413,175.386566 119.344910,187.187653 
	C107.750977,210.385178 102.335251,235.006821 103.116104,260.866547 
	C103.386627,269.825378 104.461166,278.845703 106.126396,287.656921 
	C108.740593,301.489349 112.590500,315.017944 120.056374,327.920258 
z"/>
<path fill="#E54335" opacity="1.000000" stroke="none" 
	d="
M119.993256,186.842438 
	C124.303413,175.386566 131.546906,165.755951 139.151855,156.390564 
	C151.625488,141.029434 166.838943,128.974426 184.087173,119.345871 
	C198.013565,111.571671 212.786224,106.264626 228.364288,102.971336 
	C242.701248,99.940422 257.225098,99.304398 271.733612,100.127037 
	C287.273010,101.008133 302.452271,104.362885 316.974945,110.092812 
	C334.020203,116.818024 349.478394,126.213516 363.063446,138.583298 
	C363.781036,139.236710 364.386353,140.013397 365.485382,141.215546 
	C361.005188,145.627045 356.570129,149.841614 352.306732,154.223221 
	C342.813812,163.979309 333.360657,173.775314 323.998810,183.656906 
	C321.808624,185.968704 320.315277,186.422958 317.412628,184.280533 
	C311.150726,179.658661 304.769409,174.959122 297.816833,171.559647 
	C280.538605,163.111374 262.428467,161.013351 243.301743,164.758972 
	C224.097244,168.519806 208.012558,177.524734 194.529739,191.161026 
	C184.581116,201.222916 177.448837,213.344879 172.072083,226.740662 
	C154.313934,213.435516 137.153595,200.138977 119.993256,186.842438 
z"/>
<path fill="#34A353" opacity="1.000000" stroke="none" 
	d="
M364.069733,376.103821 
	C356.061707,382.064545 348.375641,388.530701 339.978119,393.880005 
	C322.920441,404.745850 303.702942,410.264191 283.906921,412.619293 
	C270.870667,414.170227 257.504883,413.235229 244.295471,412.971252 
	C229.309982,412.671814 215.100494,408.342377 201.338943,402.882812 
	C185.673599,396.667999 171.422729,387.938049 158.445587,377.049438 
	C145.000961,365.768524 134.039581,352.500305 125.055840,337.523071 
	C123.202896,334.433960 121.713387,331.126892 120.361786,327.426392 
	C137.818680,313.609131 154.970169,300.285736 172.121643,286.962341 
	C177.978882,301.794556 185.900116,315.333313 197.754074,326.188965 
	C211.353195,338.642853 227.048279,347.268402 245.477005,349.950287 
	C268.843506,353.350708 291.071167,350.135132 311.379913,337.278809 
	C311.647034,337.109741 312.001862,337.079224 312.983124,337.043671 
	C330.456909,350.103485 347.263336,363.103638 364.069733,376.103821 
z"/>
<path fill="#4280EF" opacity="1.000000" stroke="none" 
	d="
M364.374756,375.962616 
	C347.263336,363.103638 330.456909,350.103485 313.339294,336.954041 
	C323.724884,328.736023 333.019440,319.416779 338.476501,306.944305 
	C340.789856,301.657074 342.461761,296.089233 344.662231,289.992065 
	C316.006805,289.992065 288.252167,289.992065 260.250977,289.992065 
	C260.250977,269.633972 260.250977,249.699921 260.250977,228.999924 
	C262.074005,228.999924 263.987946,228.999924 265.901886,228.999924 
	C311.387268,228.999924 356.872803,229.053070 402.357788,228.917953 
	C406.918365,228.904404 409.168915,229.395859 409.188293,234.960815 
	C409.224457,245.319061 410.982086,255.680908 410.864685,266.028107 
	C410.621948,287.418488 406.376801,308.087585 398.063416,327.915161 
	C390.349457,346.313049 379.292511,362.281036 364.374756,375.962616 
z"/>
<path fill="#F6B704" opacity="1.000000" stroke="none" 
	d="
M172.068527,286.554688 
	C154.970169,300.285736 137.818680,313.609131 120.351524,327.072815 
	C112.590500,315.017944 108.740593,301.489349 106.126396,287.656921 
	C104.461166,278.845703 103.386627,269.825378 103.116104,260.866547 
	C102.335251,235.006821 107.750977,210.385178 119.669083,187.015045 
	C137.153595,200.138977 154.313934,213.435516 171.755234,226.924744 
	C170.981155,232.854385 169.240677,238.565445 169.022308,244.334091 
	C168.638458,254.474533 168.963623,264.661011 169.457367,274.805573 
	C169.642944,278.618500 171.124634,282.368408 172.068527,286.554688 
z"/>
</svg>